<?xml version="1.0" encoding="UTF-8" standalone="no"?>
<svg width="417px" height="151px" viewBox="0 0 417 151" version="1.1" xmlns="http://www.w3.org/2000/svg" xmlns:xlink="http://www.w3.org/1999/xlink">
    <!-- Generator: Sketch 39.1 (31720) - http://www.bohemiancoding.com/sketch -->
    <title>UI Starter- store catalog</title>
    <desc>Created with Sketch.</desc>
    <defs>
        <rect id="path-1" x="-2.84217094e-14" y="0" width="417" height="151"></rect>
        <rect id="path-3" x="0" y="0" width="144" height="143"></rect>
        <polygon id="path-5" points="0 287 147 287 147 0 0 0"></polygon>
        <rect id="path-7" x="0.652175682" y="0" width="16.2318841" height="1.08433735"></rect>
        <mask id="mask-8" maskContentUnits="userSpaceOnUse" maskUnits="objectBoundingBox" x="0" y="0" width="16.2318841" height="1.08433735" fill="white">
            <use xlink:href="#path-7"></use>
        </mask>
        <polygon id="path-9" points="0 61.171875 55.6955897 61.171875 55.6955897 0.58921875 0 0.58921875"></polygon>
        <polygon id="path-11" points="4 64.2855703 59.6955897 64.2855703 59.6955897 3.70291406 4 3.70291406"></polygon>
        <polygon id="path-13" points="0 13.7245422 21.7130435 13.7245422 21.7130435 -0.000124444444 0 -0.000124444444"></polygon>
    </defs>
    <g id="Mobile-Category-Tabs" stroke="none" stroke-width="1" fill="none" fill-rule="evenodd">
        <g id="Getting-Started-light" transform="translate(-72.000000, -598.000000)">
            <g id="UI-Starter--store-catalog" transform="translate(72.000000, 598.000000)">
                <g id="Page-1-Copy-2"></g>
                <g id="ui-starter">
                    <mask id="mask-2" fill="white">
                        <use xlink:href="#path-1"></use>
                    </mask>
                    <use id="Mask" fill="#C0E6FF" xlink:href="#path-1"></use>
                </g>
                <g id="Group-11" transform="translate(114.000000, 27.683000)"></g>
                <g id="Group-11" transform="translate(137.000000, 8.000000)">
                    <g id="Group-9-Copy-6">
                        <mask id="mask-4" fill="white">
                            <use xlink:href="#path-3"></use>
                        </mask>
                        <g id="Mask"></g>
                        <g id="Group-9-Copy-4" mask="url(#mask-4)">
                            <g transform="translate(-3.000000, 0.000000)" id="Group-6">
                                <g>
                                    <g id="Page-1">
                                        <path d="M145.613208,268.88835 C145.613208,278.122505 138.163358,285.606796 128.971698,285.606796 L20.8018868,285.606796 C11.6102264,285.606796 4.16037736,278.122505 4.16037736,268.88835 L4.16037736,26.4708738 C4.16037736,17.2367184 11.6102264,9.75242718 20.8018868,9.75242718 L128.971698,9.75242718 C138.163358,9.75242718 145.613208,17.2367184 145.613208,26.4708738 L145.613208,268.88835 L145.613208,268.88835 Z" id="Stroke-1" stroke="#264A60" fill="#FFFFFF"></path>
                                        <mask id="mask-6" fill="white">
                                            <use xlink:href="#path-5"></use>
                                        </mask>
                                        <g id="Clip-4"></g>
                                        <polygon id="Stroke-3" stroke="#264A60" fill="#00B4A0" mask="url(#mask-6)" points="4.16037736 252.169903 145.613208 252.169903 145.613208 40.4029126 4.16037736 40.4029126"></polygon>
                                        <path d="M91.5283019,26.4708738 C91.5283019,27.2399223 90.9070189,27.8640777 90.1415094,27.8640777 L62.4056604,27.8640777 C61.6401509,27.8640777 61.0188679,27.2399223 61.0188679,26.4708738 C61.0188679,25.7018252 61.6401509,25.0776699 62.4056604,25.0776699 L90.1415094,25.0776699 C90.9070189,25.0776699 91.5283019,25.7018252 91.5283019,26.4708738" id="Fill-6" fill="#264A60" mask="url(#mask-6)"></path>
                                    </g>
                                </g>
                            </g>
                        </g>
                    </g>
                    <g id="Group-10" transform="translate(30.000000, 59.000000)">
                        <g id="Group-3" transform="translate(0.000000, 1.000000)">
                            <polygon id="Path-262" stroke="#FFFFFF" stroke-width="1.5" points="0.0980808424 20.4302228 4.1228002 20.4302228 4.1228002 12.6880598 6.44219882 11.2878771 6.44219882 23.338293 21.956986 23.338293 21.956986 11.2201029 24.2762115 12.704584 24.2762115 20.4242701 28.3884767 20.4242701 28.3884767 10.0042473 23.9470109 3.1877765 19.0322124 0.804934582 18.6449134 0.170374859 10.3531547 0.170374859 10.0620613 0.695799311 4.51638927 3.27897626 0.0468466938 9.99969703"></polygon>
                            <polygon id="Path-263" fill="#FFFFFF" points="9.67207314 0.402411403 6.5418365 4.38038874 13.8472317 11.5094568 13.6298404 23.2305452 14.6287647 23.2382224 14.7349128 11.5908615"></polygon>
                            <polygon id="Path-263" fill="#FFFFFF" transform="translate(18.174607, 11.820317) scale(-1, 1) translate(-18.174607, -11.820317) " points="17.208305 0.402411403 14.0780684 4.38038874 21.3834635 11.5094568 21.1660722 23.2305452 22.1649966 23.2382224 22.2711447 11.5908615"></polygon>
                        </g>
                        <g id="Group-4" transform="translate(10.000000, 48.000000)" stroke="#FFFFFF" stroke-width="1.5">
                            <path d="M0.103199111,22.5778581 L3.02709671,25.698331 L6.00819849,22.5266657 L4.47086524,3.83157532 L6.01688334,1.62008869 C6.01688334,1.62008869 3.12263,-1.37519983 0.105167675,1.64041505 C0.546820961,2.51724479 1.64817502,3.8927695 1.64817502,3.8927695 L0.103199111,22.5778581 Z" id="Path-265"></path>
                            <polygon id="Path-266" points="5.37517756 12.6533119 8.08600698 13.1298521 8.62875185 10.7133811 4.90909091 5.6875"></polygon>
                        </g>
                        <g id="Group" transform="translate(61.000000, 0.000000)" stroke="#FFFFFF">
                            <use id="Rectangle-284" mask="url(#mask-8)" stroke-width="2" fill="#D8D8D8" xlink:href="#path-7"></use>
                            <polygon id="Path-267" stroke-width="1.5" points="0.96838202 27.8514007 6.49926404 27.9518661 8.79163836 10.4413798 10.9562104 27.8216185 16.5969203 27.8881983 16.5524796 1.8235981 0.970363451 1.79844868"></polygon>
                            <path d="M0.980129076,5.31063218 C0.980129076,5.31063218 3.94293478,4.54304523 3.94293478,1.77502" id="Path-268"></path>
                            <path d="M13.7337523,5.31063218 C13.7337523,5.31063218 16.696558,4.54304523 16.696558,1.77502" id="Path-268" transform="translate(15.215155, 3.542826) scale(-1, 1) translate(-15.215155, -3.542826) "></path>
                            <path d="M8.5942029,1.89759036 L8.5942029,4.60843373" id="Line" stroke-linecap="square"></path>
                        </g>
                        <g id="Group-5" transform="translate(55.000000, 46.000000)">
                            <polygon id="Path-271" stroke="#FFFFFF" stroke-width="1.5" points="10.2589238 2.60799369 5.2871251 3.71535203 0.0572790862 27.9467232 3.26759595 28.0047628 7.58810135 13.796735 7.6797504 26.7500024 22.1586759 26.6686241 22.2204253 13.8034909 26.516556 27.9276838 29.5260249 28.1024167 24.7466242 3.85507695 19.3243802 2.41575678"></polygon>
                            <polygon id="Path-272" stroke="#FFFFFF" fill="#FFFFFF" points="17.1686775 8.70706302 20.4820183 8.70706302 20.4820181 10.6681045 18.8902493 11.3387924 17.1686775 10.6681045"></polygon>
                            <polygon id="Path-274" fill="#FFFFFF" points="15.6008936 7.17193148 19.8167501 2.00272379 21.0933369 4.39217338"></polygon>
                            <polygon id="Path-274" fill="#FFFFFF" transform="translate(13.022370, 4.587328) scale(-1, 1) translate(-13.022370, -4.587328) " points="10.2761486 7.17193148 14.4920051 2.00272379 15.7685919 4.39217338"></polygon>
                            <polygon id="Path-276" fill="#FFFFFF" points="11.3998245 2.63839538 19.8822369 2.40531579 19.4920785 1.07086608 11.9456564 0.983499623"></polygon>
                        </g>
                    </g>
                </g>
                <g id="Group-14" transform="translate(313.000000, 41.000000)">
                    <g id="Group-12">
                        <path d="M31.392869,0.460416667 C14.5014676,0.460416667 0.809324009,13.9419479 0.809324009,30.5711354 C0.809324009,41.3201823 6.5328634,50.7464167 15.1384056,56.0759167 L15.1125072,56.0647604 C15.1125072,56.0647604 14.8430023,63.6749167 9.83490536,67.5238229 C9.83490536,67.5238229 17.6618779,67.8983542 24.6172084,59.9343854 C26.7975273,60.4204792 29.0636345,60.6842448 31.392869,60.6842448 C48.2826517,60.6842448 61.9747953,47.2027135 61.9747953,30.5711354 C61.9747953,13.9419479 48.2826517,0.460416667 31.392869,0.460416667 L31.392869,0.460416667 Z" id="Fill-1" fill="#F6F6F6"></path>
                        <path d="M31.392869,0.460416667 C14.5014676,0.460416667 0.809324009,13.9419479 0.809324009,30.5711354 C0.809324009,41.3201823 6.5328634,50.7464167 15.1384056,56.0759167 L15.1125072,56.0647604 C15.1125072,56.0647604 14.8430023,63.6749167 9.83490536,67.5238229 C9.83490536,67.5238229 17.6618779,67.8983542 24.6172084,59.9343854 C26.7975273,60.4204792 29.0636345,60.6842448 31.392869,60.6842448 C48.2826517,60.6842448 61.9747953,47.2027135 61.9747953,30.5711354 C61.9747953,13.9419479 48.2826517,0.460416667 31.392869,0.460416667 L31.392869,0.460416667 Z" id="Stroke-3" stroke="#264A60" stroke-linecap="round" stroke-linejoin="round"></path>
                    </g>
                    <g id="Group-13" transform="translate(4.000000, 3.113695)">
                        <polygon id="Fill-5" fill="#41D6C3" points="46.9754564 20.3387344 43.439559 34.2127969 19.8197641 34.2127969 16.2759692 20.3387344"></polygon>
                        <path d="M37.9113538,38.6577422 C39.9610974,38.6577422 41.6281744,40.2833672 41.6281744,42.2978203 C41.6281744,44.3045391 39.9610974,45.9301641 37.9113538,45.9301641 C35.8623282,45.9301641 34.1952513,44.3045391 34.1952513,42.2978203 C34.1952513,40.2833672 35.8623282,38.6577422 37.9113538,38.6577422" id="Fill-7" fill="#00B4A0"></path>
                        <path d="M19.2135282,38.6577422 C21.2625538,38.6577422 22.9231692,40.2833672 22.9231692,42.2978203 C22.9231692,44.3045391 21.2625538,45.9301641 19.2135282,45.9301641 C17.1566051,45.9301641 15.4967077,44.3045391 15.4967077,42.2978203 C15.4967077,40.8275859 16.3848103,39.5626641 17.662041,38.9896172 C18.1308615,38.7779766 18.6578359,38.6577422 19.2135282,38.6577422" id="Fill-9" fill="#00B4A0"></path>
                        <mask id="mask-10" fill="white">
                            <use xlink:href="#path-9"></use>
                        </mask>
                        <g id="Clip-12"></g>
                        <polygon id="Fill-11" fill="#F6F6F6" mask="url(#mask-10)" points="8.72092308 18.3810937 15.0209231 18.3810937 15.0209231 15.8294531 8.72092308 15.8294531"></polygon>
                    </g>
                    <path d="M26.9228103,45.411375 C26.9228103,47.4187969 25.2629128,49.0444219 23.2131692,49.0444219 C21.1569641,49.0444219 19.4970667,47.4187969 19.4970667,45.411375 C19.4970667,43.9411406 20.3844513,42.6762188 21.6616821,42.1031719 C22.1312205,41.8915313 22.6581949,41.7712969 23.2131692,41.7712969 C25.2629128,41.7712969 26.9228103,43.3969219 26.9228103,45.411375 L26.9228103,45.411375 Z" id="Stroke-14" stroke="#264A60" stroke-linecap="round" stroke-linejoin="round"></path>
                    <path d="M38.1951077,45.411375 C38.1951077,43.3969219 39.8621846,41.7712969 41.9112103,41.7712969 C43.9609538,41.7712969 45.6280308,43.3969219 45.6280308,45.411375 C45.6280308,47.4187969 43.9609538,49.0444219 41.9112103,49.0444219 C39.8621846,49.0444219 38.1951077,47.4187969 38.1951077,45.411375 L38.1951077,45.411375 Z" id="Stroke-16" stroke="#264A60" stroke-linecap="round" stroke-linejoin="round"></path>
                    <path d="M38.1951077,44.625 L26.9225949,44.625" id="Stroke-18" stroke="#264A60" stroke-linecap="round" stroke-linejoin="round"></path>
                    <polygon id="Stroke-20" stroke="#264A60" stroke-linecap="round" stroke-linejoin="round" points="47.4393436 37.3261406 23.8195487 37.3261406 20.2764718 23.4520781 50.975241 23.4520781"></polygon>
                    <polyline id="Stroke-22" stroke="#264A60" stroke-linecap="round" stroke-linejoin="round" points="19.0207795 18.9432188 23.8195487 37.3264219 21.6621128 42.1034531"></polyline>
                    <mask id="mask-12" fill="white">
                        <use xlink:href="#path-11"></use>
                    </mask>
                    <g id="Clip-25"></g>
                    <polygon id="Stroke-24" stroke="#264A60" stroke-linecap="round" stroke-linejoin="round" mask="url(#mask-12)" points="12.7202051 21.4947891 19.0202051 21.4947891 19.0202051 18.9431484 12.7202051 18.9431484"></polygon>
                </g>
                <g id="Group-14-Copy" transform="translate(78.000000, 92.000000) scale(-1, 1) translate(-78.000000, -92.000000) translate(58.000000, 70.000000)">
                    <g id="Group-12">
                        <path d="M20.2534639,0.297916667 C9.35578555,0.297916667 0.522144522,9.02126042 0.522144522,19.7813229 C0.522144522,26.7365885 4.21475058,32.8359167 9.76671329,36.2844167 L9.75000466,36.2771979 C9.75000466,36.2771979 9.57613054,41.2014167 6.34510023,43.6918854 C6.34510023,43.6918854 11.3947599,43.9342292 15.8820699,38.7810729 C17.2887273,39.0956042 18.7507319,39.266276 20.2534639,39.266276 C31.1500979,39.266276 39.9837389,30.5429323 39.9837389,19.7813229 C39.9837389,9.02126042 31.1500979,0.297916667 20.2534639,0.297916667 L20.2534639,0.297916667 Z" id="Fill-1" fill="#F6F6F6"></path>
                        <path d="M20.2534639,0.297916667 C9.35578555,0.297916667 0.522144522,9.02126042 0.522144522,19.7813229 C0.522144522,26.7365885 4.21475058,32.8359167 9.76671329,36.2844167 L9.75000466,36.2771979 C9.75000466,36.2771979 9.57613054,41.2014167 6.34510023,43.6918854 C6.34510023,43.6918854 11.3947599,43.9342292 15.8820699,38.7810729 C17.2887273,39.0956042 18.7507319,39.266276 20.2534639,39.266276 C31.1500979,39.266276 39.9837389,30.5429323 39.9837389,19.7813229 C39.9837389,9.02126042 31.1500979,0.297916667 20.2534639,0.297916667 L20.2534639,0.297916667 Z" id="Stroke-3" stroke="#264A60" stroke-linecap="round" stroke-linejoin="round"></path>
                    </g>
                </g>
                <g id="Page-1" transform="translate(66.000000, 83.000000)">
                    <g id="Group-6" transform="translate(0.000000, 0.035653)">
                        <path d="M2.18597101,11.6508 L5.78026087,11.6508 L5.78026087,9.70355556 L2.18597101,9.70355556 L2.18597101,11.6508 Z M21.5536232,5.908 L21.5536232,11.6355556 C21.5536232,12.6793333 20.6784058,13.5333333 19.6086957,13.5333333 L2.10434783,13.5333333 C1.03463768,13.5333333 0.15942029,12.6793333 0.15942029,11.6355556 L0.15942029,5.908 L21.5536232,5.908 Z" id="Fill-1" fill="#F6F6F6"></path>
                        <polygon id="Fill-3" fill="#41D6C3" points="0.15942029 5.908 21.5536232 5.908 21.5536232 3.06133333 0.15942029 3.06133333"></polygon>
                        <path d="M21.5535275,2.01764889 L21.5535275,3.06142667 L0.159324638,3.06142667 L0.159324638,2.01764889 C0.159324638,0.973871111 1.03454203,0.119871111 2.10425217,0.119871111 L19.6086,0.119871111 C20.6783101,0.119871111 21.5535275,0.973871111 21.5535275,2.01764889" id="Fill-4" fill="#F6F6F6"></path>
                        <polygon id="Fill-5" fill="#C0E6FF" points="2.18597101 11.6508 5.78026087 11.6508 5.78026087 9.70355556 2.18597101 9.70355556"></polygon>
                    </g>
                    <path d="M0.15942029,3.09708 L0.15942029,2.05330222 C0.15942029,1.00952444 1.03463768,0.155524444 2.10434783,0.155524444 L19.6086957,0.155524444 C20.6784058,0.155524444 21.5536232,1.00952444 21.5536232,2.05330222 L21.5536232,3.09708" id="Stroke-7" stroke="#264A60" stroke-linecap="round" stroke-linejoin="round"></path>
                    <path d="M21.5535275,5.94374667 L21.5535275,11.6713022 C21.5535275,12.71508 20.6783101,13.56908 19.6086,13.56908 L2.10425217,13.56908 C1.03454203,13.56908 0.159324638,12.71508 0.159324638,11.6713022 L0.159324638,5.94374667" id="Stroke-9" stroke="#264A60" stroke-linecap="round" stroke-linejoin="round"></path>
                    <mask id="mask-14" fill="white">
                        <use xlink:href="#path-13"></use>
                    </mask>
                    <g id="Clip-12"></g>
                    <polygon id="Stroke-11" stroke="#264A60" stroke-linecap="round" stroke-linejoin="round" mask="url(#mask-14)" points="0.15942029 5.94365333 21.5536232 5.94365333 21.5536232 3.09698667 0.15942029 3.09698667"></polygon>
                    <path d="M2.62169855,7.55685778 L18.3756116,7.55685778" id="Stroke-13" stroke="#264A60" stroke-linecap="round" stroke-linejoin="round" mask="url(#mask-14)"></path>
                    <polygon id="Stroke-14" stroke="#264A60" stroke-linecap="round" stroke-linejoin="round" mask="url(#mask-14)" points="2.18597101 11.6864533 5.78026087 11.6864533 5.78026087 9.73920889 2.18597101 9.73920889"></polygon>
                </g>
            </g>
        </g>
    </g>
</svg>