<?xml version="1.0" encoding="UTF-8" standalone="no"?>
<svg width="51px" height="66px" viewBox="0 0 51 66" version="1.1" xmlns="http://www.w3.org/2000/svg" xmlns:xlink="http://www.w3.org/1999/xlink">
    <!-- Generator: Sketch 3.8.3 (29802) - http://www.bohemiancoding.com/sketch -->
    <title>Page 1</title>
    <desc>Created with Sketch.</desc>
    <defs>
        <polygon id="path-1" points="0.000659034601 21.4911543 50.7305065 21.4911543 50.7305065 0.225663882 0.000659034601 0.225663882"></polygon>
        <polygon id="path-3" points="50.7311655 21.4544331 50.7311655 0.307995243 0.00013180692 0.307995243 0.00013180692 21.4544331 50.7311655 21.4544331"></polygon>
    </defs>
    <g id="Page-1" stroke="none" stroke-width="1" fill="none" fill-rule="evenodd">
        <g>
            <path d="M0.766457241,27.9803979 C0.285361982,28.8241295 0.000659034601,29.6931066 0.000659034601,30.5899866 L0.000659034601,38.3682616 C0.000659034601,44.3806796 11.3558252,49.2490772 25.3642647,49.2490772 C39.3727042,49.2490772 50.7305065,44.3806796 50.7305065,38.3682616 L50.7305065,30.5899866 C50.7305065,29.6904492 50.4458035,28.8241295 49.9620721,27.9803979 C47.2402592,32.7438274 37.2769741,36.2622545 25.3642647,36.2622545 C13.4568275,36.2622545 3.49090628,32.7438274 0.766457241,27.9803979 Z" id="Fill-1" fill="#F8E81C"></path>
            <g id="Group-5" transform="translate(0.000000, 44.258389)">
                <mask id="mask-2" fill="white">
                    <use xlink:href="#path-1"></use>
                </mask>
                <g id="Clip-4"></g>
                <path d="M25.3642647,8.50220561 C13.4568275,8.50220561 3.49090628,4.96916267 0.766457241,0.225663882 C0.285361982,1.05876577 0.000659034601,1.92242801 0.000659034601,2.8272803 L0.000659034601,10.6108702 C0.000659034601,16.619302 11.3558252,21.4916858 25.3642647,21.4916858 C39.3727042,21.4916858 50.7305065,16.619302 50.7305065,10.6108702 L50.7305065,2.8272803 C50.7305065,1.92508544 50.4458035,1.06142319 49.9620721,0.228321305 C47.2402592,4.96916267 37.2769741,8.50220561 25.3642647,8.50220561" id="Fill-3" fill="#F8E81C" mask="url(#mask-2)"></path>
            </g>
            <g id="Group-8" transform="translate(0.000000, 11.272387)">
                <mask id="mask-4" fill="white">
                    <use xlink:href="#path-3"></use>
                </mask>
                <g id="Clip-7"></g>
                <path d="M25.3663736,8.2310998 C12.0327856,8.2310998 1.18903023,4.70735785 0.697390415,0.307995243 C0.265063717,1.11053678 0.00013180692,1.94098124 0.00013180692,2.79799993 L0.00013180692,10.5736176 C0.00013180692,16.5913503 11.355298,21.4544331 25.3637375,21.4544331 C39.373495,21.4544331 50.7312973,16.5913503 50.7312973,10.5736176 L50.7312973,2.79799993 C50.7339335,1.94098124 50.4716377,1.11053678 50.0353568,0.307995243 C49.543717,4.70735785 38.7052339,8.2310998 25.3663736,8.2310998 Z" id="Fill-6" fill="#F8E81C" mask="url(#mask-4)"></path>
            </g>
            <path d="M25.366769,0 C38.5645959,0 49.2633636,3.68584472 49.2633636,8.23402297 C49.2633636,12.7808725 38.5645959,16.4667172 25.366769,16.4667172 C12.1689421,16.4667172 1.47017439,12.7808725 1.47017439,8.23402297 C1.47017439,3.68584472 12.1689421,0 25.366769,0" id="Fill-9" fill="#BE9B00"></path>
        </g>
    </g>
</svg>